<svg width="248" height="97" viewBox="0 0 248 97" fill="none" xmlns="http://www.w3.org/2000/svg">
<g filter="url(#filter0_d)">
<rect x="4" width="240" height="89" rx="44.5" fill="#CDFFD8"/>
<rect x="4.5" y="0.5" width="239" height="88" rx="44" stroke="#017433"/>
</g>
<mask id="path-3-inside-1" fill="white">
<path fill-rule="evenodd" clip-rule="evenodd" d="M106.111 65.0654L117.353 5.83245L129.668 9.33503C129.569 9.66753 129.486 10.0126 129.418 10.3688C128.676 14.277 130.169 18.0409 132.752 18.7755C135.335 19.5102 138.03 16.9375 138.772 13.0292C138.839 12.673 138.888 12.3181 138.92 11.9665L151.026 15.41L139.784 74.643L127.69 71.2032C127.772 70.9098 127.843 70.6073 127.902 70.2964C128.658 66.3158 127.176 62.4933 124.593 61.7587C122.01 61.024 119.304 63.6554 118.548 67.636C118.489 67.9468 118.444 68.2567 118.412 68.5642L106.111 65.0654Z"/>
</mask>
<path fill-rule="evenodd" clip-rule="evenodd" d="M106.111 65.0654L117.353 5.83245L129.668 9.33503C129.569 9.66753 129.486 10.0126 129.418 10.3688C128.676 14.277 130.169 18.0409 132.752 18.7755C135.335 19.5102 138.03 16.9375 138.772 13.0292C138.839 12.673 138.888 12.3181 138.92 11.9665L151.026 15.41L139.784 74.643L127.69 71.2032C127.772 70.9098 127.843 70.6073 127.902 70.2964C128.658 66.3158 127.176 62.4933 124.593 61.7587C122.01 61.024 119.304 63.6554 118.548 67.636C118.489 67.9468 118.444 68.2567 118.412 68.5642L106.111 65.0654Z" fill="#CDFFD8"/>
<path d="M117.353 5.83245L117.726 3.86753L115.803 3.32038L115.43 5.2853L117.353 5.83245ZM106.111 65.0654L104.187 64.5183L103.814 66.4832L105.738 67.0303L106.111 65.0654ZM129.668 9.33503L131.545 10.0754L132.167 7.97485L130.041 7.37011L129.668 9.33503ZM138.92 11.9665L139.292 10.0015L137.166 9.3968L136.968 11.618L138.92 11.9665ZM151.026 15.41L152.95 15.9571L153.323 13.9922L151.399 13.4451L151.026 15.41ZM139.784 74.643L139.411 76.6079L141.335 77.155L141.708 75.1901L139.784 74.643ZM127.69 71.2032L125.805 70.4932L125.225 72.573L127.317 73.1682L127.69 71.2032ZM118.412 68.5642L118.039 70.5291L120.131 71.1242L120.36 68.9445L118.412 68.5642ZM115.43 5.2853L104.187 64.5183L108.035 65.6126L119.277 6.3796L115.43 5.2853ZM130.041 7.37011L117.726 3.86753L116.98 7.79737L129.295 11.2999L130.041 7.37011ZM131.342 10.9159C131.397 10.625 131.465 10.3445 131.545 10.0754L127.791 8.59462C127.674 8.9906 127.574 9.40019 127.494 9.82164L131.342 10.9159ZM133.125 16.8106C132.665 16.6799 132.077 16.2166 131.641 15.1164C131.21 14.0299 131.035 12.5313 131.342 10.9159L127.494 9.82164C127.059 12.1146 127.259 14.452 128.035 16.4081C128.805 18.3506 130.255 20.1364 132.379 20.7404L133.125 16.8106ZM136.848 12.4821C136.541 14.0974 135.844 15.3479 135.066 16.0906C134.278 16.8426 133.584 16.9413 133.125 16.8106L132.379 20.7404C134.502 21.3444 136.447 20.524 137.838 19.1963C139.239 17.8592 140.26 15.8693 140.695 13.5764L136.848 12.4821ZM136.968 11.618C136.943 11.9025 136.903 12.1912 136.848 12.4821L140.695 13.5764C140.775 13.1549 140.834 12.7336 140.871 12.3149L136.968 11.618ZM151.399 13.4451L139.292 10.0015L138.547 13.9314L150.653 17.3749L151.399 13.4451ZM141.708 75.1901L152.95 15.9571L149.103 14.8628L137.86 74.0958L141.708 75.1901ZM127.317 73.1682L139.411 76.6079L140.157 72.678L128.063 69.2383L127.317 73.1682ZM125.978 69.7493C125.93 70.0052 125.872 70.2534 125.805 70.4932L129.576 71.9133C129.673 71.5663 129.756 71.2093 129.826 70.8436L125.978 69.7493ZM124.22 63.7236C124.663 63.8496 125.252 64.309 125.69 65.4398C126.121 66.553 126.293 68.0905 125.978 69.7493L129.826 70.8436C130.266 68.5218 130.075 66.1577 129.309 64.1809C128.55 62.2216 127.106 60.4024 124.966 59.7938L124.22 63.7236ZM120.472 68.1832C120.787 66.5244 121.495 65.2371 122.283 64.4707C123.084 63.6923 123.777 63.5976 124.22 63.7236L124.966 59.7938C122.826 59.1851 120.875 60.0387 119.488 61.3875C118.088 62.7484 117.065 64.767 116.625 67.0889L120.472 68.1832ZM120.36 68.9445C120.386 68.6933 120.424 68.4391 120.472 68.1832L116.625 67.0889C116.555 67.4546 116.502 67.8201 116.464 68.1838L120.36 68.9445ZM105.738 67.0303L118.039 70.5291L118.785 66.5992L106.484 63.1005L105.738 67.0303Z" fill="#0E7D3D" mask="url(#path-3-inside-1)"/>
<rect width="8.75451" height="35.0086" transform="matrix(0.186472 -0.98246 0.96185 0.273577 116.103 14.2075)" fill="#017433"/>
<ellipse rx="7.16278" ry="4.58446" transform="matrix(0.186472 -0.98246 0.96185 0.273577 134.824 11.2913)" fill="#CDFFD8"/>
<mask id="path-7-inside-2" fill="white">
<path fill-rule="evenodd" clip-rule="evenodd" d="M120.666 89L86.9997 38.9848L98.2173 32.814C98.3811 33.1197 98.5642 33.424 98.7667 33.7247C100.988 37.0248 104.696 38.6507 107.049 37.3564C109.402 36.0621 109.509 32.3376 107.287 29.0376C107.085 28.7368 106.87 28.45 106.645 28.178L117.674 22.1112L151.34 72.1264L140.323 78.1865C140.175 77.9204 140.013 77.6554 139.836 77.393C137.574 74.0318 133.832 72.3563 131.479 73.6506C129.126 74.945 129.053 78.719 131.316 82.0801C131.492 82.3426 131.678 82.5947 131.871 82.836L120.666 89Z"/>
</mask>
<path fill-rule="evenodd" clip-rule="evenodd" d="M120.666 89L86.9997 38.9848L98.2173 32.814C98.3811 33.1197 98.5642 33.424 98.7667 33.7247C100.988 37.0248 104.696 38.6507 107.049 37.3564C109.402 36.0621 109.509 32.3376 107.287 29.0376C107.085 28.7368 106.87 28.45 106.645 28.178L117.674 22.1112L151.34 72.1264L140.323 78.1865C140.175 77.9204 140.013 77.6554 139.836 77.393C137.574 74.0318 133.832 72.3563 131.479 73.6506C129.126 74.945 129.053 78.719 131.316 82.0801C131.492 82.3426 131.678 82.5947 131.871 82.836L120.666 89Z" fill="#CDFFD8"/>
<path d="M86.9997 38.9848L85.8829 37.3257L84.1306 38.2896L85.2474 39.9488L86.9997 38.9848ZM120.666 89L118.914 89.964L120.03 91.6231L121.783 90.6591L120.666 89ZM98.2173 32.814L100.072 32.0204L99.0373 30.0895L97.1005 31.1549L98.2173 32.814ZM106.645 28.178L105.528 26.5188L103.591 27.5843L105.013 29.3026L106.645 28.178ZM117.674 22.1112L119.426 21.1472L118.309 19.4881L116.557 20.452L117.674 22.1112ZM151.34 72.1264L152.457 73.7855L154.209 72.8215L153.092 71.1624L151.34 72.1264ZM140.323 78.1865L138.484 79.0079L139.534 80.8942L141.44 79.8456L140.323 78.1865ZM131.871 82.836L132.988 84.4951L134.894 83.4466L133.524 81.7362L131.871 82.836ZM85.2474 39.9488L118.914 89.964L122.418 88.036L88.7521 38.0208L85.2474 39.9488ZM97.1005 31.1549L85.8829 37.3257L88.1165 40.6439L99.3341 34.4732L97.1005 31.1549ZM100.519 32.7607C100.354 32.5151 100.205 32.2677 100.072 32.0204L96.3623 33.6077C96.5574 33.9717 96.7748 34.3328 97.0143 34.6887L100.519 32.7607ZM105.932 35.6973C105.514 35.9275 104.77 36.0115 103.686 35.5362C102.616 35.0668 101.437 34.1247 100.519 32.7607L97.0143 34.6887C98.3175 36.6248 100.104 38.1456 102.031 38.9907C103.945 39.8298 106.231 40.0797 108.166 39.0156L105.932 35.6973ZM105.535 30.0016C106.453 31.3655 106.837 32.7447 106.806 33.8198C106.775 34.9085 106.351 35.4671 105.932 35.6973L108.166 39.0156C110.1 37.9514 110.906 36.0006 110.961 34.0785C111.016 32.1428 110.343 30.0097 109.04 28.0736L105.535 30.0016ZM105.013 29.3026C105.195 29.5227 105.369 29.7559 105.535 30.0016L109.04 28.0736C108.8 27.7178 108.545 27.3773 108.277 27.0533L105.013 29.3026ZM116.557 20.452L105.528 26.5188L107.762 29.8371L118.79 23.7703L116.557 20.452ZM153.092 71.1624L119.426 21.1472L115.921 23.0751L149.587 73.0903L153.092 71.1624ZM141.44 79.8456L152.457 73.7855L150.223 70.4672L139.207 76.5274L141.44 79.8456ZM138.084 78.357C138.229 78.573 138.362 78.7904 138.484 79.0079L142.163 77.3651C141.988 77.0504 141.796 76.7378 141.589 76.429L138.084 78.357ZM132.596 75.3098C133 75.0879 133.741 75.0005 134.848 75.4961C135.938 75.9841 137.141 76.9563 138.084 78.357L141.589 76.429C140.269 74.4685 138.47 72.9224 136.535 72.0559C134.618 71.1971 132.312 70.9191 130.363 71.9915L132.596 75.3098ZM133.068 81.1162C132.125 79.7155 131.723 78.3025 131.744 77.2034C131.766 76.087 132.193 75.5317 132.596 75.3098L130.363 71.9915C128.413 73.0639 127.627 75.0428 127.589 76.9772C127.551 78.929 128.244 81.0836 129.563 83.0441L133.068 81.1162ZM133.524 81.7362C133.366 81.5391 133.213 81.3322 133.068 81.1162L129.563 83.0441C129.771 83.3529 129.99 83.6504 130.219 83.9358L133.524 81.7362ZM121.783 90.6591L132.988 84.4951L130.754 81.1769L119.549 87.3409L121.783 90.6591Z" fill="#0E7D3D" mask="url(#path-7-inside-2)"/>
<rect width="8.75451" height="35.0086" transform="matrix(-0.558402 -0.829571 0.87618 -0.481985 92.001 45.8184)" fill="#017433"/>
<ellipse rx="7.16278" ry="4.58446" transform="matrix(-0.558402 -0.829571 0.87618 -0.481985 103.259 30.5778)" fill="#CDFFD8"/>
<path d="M112 64L122 48H125L115 64H112Z" fill="#017433"/>
<path d="M116 52.5C116 54.6814 114.661 56 113.5 56C112.339 56 111 54.6814 111 52.5C111 50.3186 112.339 49 113.5 49C114.661 49 116 50.3186 116 52.5Z" stroke="#017433" stroke-width="2"/>
<path d="M126 59.5C126 61.6814 124.661 63 123.5 63C122.339 63 121 61.6814 121 59.5C121 57.3186 122.339 56 123.5 56C124.661 56 126 57.3186 126 59.5Z" stroke="#017433" stroke-width="2"/>
<defs>
<filter id="filter0_d" x="0" y="0" width="248" height="97" filterUnits="userSpaceOnUse" color-interpolation-filters="sRGB">
<feFlood flood-opacity="0" result="BackgroundImageFix"/>
<feColorMatrix in="SourceAlpha" type="matrix" values="0 0 0 0 0 0 0 0 0 0 0 0 0 0 0 0 0 0 127 0" result="hardAlpha"/>
<feOffset dy="4"/>
<feGaussianBlur stdDeviation="2"/>
<feColorMatrix type="matrix" values="0 0 0 0 0 0 0 0 0 0 0 0 0 0 0 0 0 0 0.25 0"/>
<feBlend mode="normal" in2="BackgroundImageFix" result="effect1_dropShadow"/>
<feBlend mode="normal" in="SourceGraphic" in2="effect1_dropShadow" result="shape"/>
</filter>
</defs>
</svg>
