<svg width="248" height="97" viewBox="0 0 248 97" fill="none" xmlns="http://www.w3.org/2000/svg">
<g filter="url(#filter0_d)">
<rect x="4" width="240" height="89" rx="44.5" fill="#CDFFD8"/>
<rect x="4.5" y="0.5" width="239" height="88" rx="44" stroke="#017433"/>
</g>
<circle cx="123" cy="44" r="22" stroke="#017433" stroke-width="2"/>
<circle cx="123" cy="44" r="17.5" stroke="#017433" stroke-width="5"/>
<path d="M123 35L125.245 41.2188H132.511L126.633 45.0623L128.878 51.2812L123 47.4377L117.122 51.2812L119.367 45.0623L113.489 41.2188H120.755L123 35Z" fill="#017433"/>
<circle cx="160.5" cy="52.5" r="9.5" stroke="#017433" stroke-width="2"/>
<path d="M160.5 49L161.51 51.7639H164.78L162.135 53.4721L163.145 56.2361L160.5 54.5279L157.855 56.2361L158.865 53.4721L156.22 51.7639H159.49L160.5 49Z" fill="#017433"/>
<circle cx="86.5" cy="52.5" r="9.5" stroke="#017433" stroke-width="2"/>
<path d="M86 49L87.1226 51.7639H90.7553L87.8164 53.4721L88.9389 56.2361L86 54.5279L83.0611 56.2361L84.1836 53.4721L81.2447 51.7639H84.8774L86 49Z" fill="#017433"/>
<defs>
<filter id="filter0_d" x="0" y="0" width="248" height="97" filterUnits="userSpaceOnUse" color-interpolation-filters="sRGB">
<feFlood flood-opacity="0" result="BackgroundImageFix"/>
<feColorMatrix in="SourceAlpha" type="matrix" values="0 0 0 0 0 0 0 0 0 0 0 0 0 0 0 0 0 0 127 0" result="hardAlpha"/>
<feOffset dy="4"/>
<feGaussianBlur stdDeviation="2"/>
<feColorMatrix type="matrix" values="0 0 0 0 0 0 0 0 0 0 0 0 0 0 0 0 0 0 0.25 0"/>
<feBlend mode="normal" in2="BackgroundImageFix" result="effect1_dropShadow"/>
<feBlend mode="normal" in="SourceGraphic" in2="effect1_dropShadow" result="shape"/>
</filter>
</defs>
</svg>
